<svg xmlns="http://www.w3.org/2000/svg" width="2538" height="580" fill="none" viewBox="0 0 2538 580"><path fill="#fff" d="M395 0c-41.713 4.073-80.952 22.612-110.84 52.747C250.122 87.067 231 133.613 231 182.148h113.982c0-18.055 7.113-35.37 19.776-48.137A67.4 67.4 0 0 1 395 116.398z"/><path fill="#85C227" d="M231 397V198h114v199zm1.957 169.07A180.3 180.3 0 0 1 181 579.148V462.75a67 67 0 0 0 8.338-2.856 67.5 67.5 0 0 0 21.904-14.757 68.1 68.1 0 0 0 14.637-22.085A68.6 68.6 0 0 0 231.018 397H345c0 24.032-4.695 47.829-13.816 70.031a183.1 183.1 0 0 1-39.344 59.37 181.4 181.4 0 0 1-58.883 39.669M410 363.656c40.587-4.653 78.66-23.019 107.827-52.427 34.038-34.319 53.161-80.866 53.161-129.401 0-48.534-19.123-95.081-53.161-129.4C488.66 23.019 450.587 4.654 410 0v116.967a67.4 67.4 0 0 1 27.232 16.722c12.662 12.768 19.776 30.084 19.776 48.139s-7.114 35.372-19.776 48.139A67.4 67.4 0 0 1 410 246.689z"/><path fill="#fff" d="M164 215c-41.713 4.073-80.952 22.612-110.84 52.747C19.122 302.067 0 348.613 0 397.148s19.122 95.081 53.16 129.4c29.888 30.135 69.127 48.675 110.84 52.748V462.898a67.4 67.4 0 0 1-30.242-17.613c-12.663-12.767-19.776-30.082-19.776-48.137s7.113-35.37 19.776-48.137A67.4 67.4 0 0 1 164 331.398z"/><path fill="#85C227" d="M581.5 254.3h71.1v150h78.3V464H581.5zm247.102 0h67.2l84 209.7h-72.9l-13.5-36.6h-62.4l-13.5 36.6h-72.9zm49.2 120.9-15.6-48.3-15.6 48.3zm160.138 8.7-75.897-129.6h75.897l35.7 66.3 38.7-66.3h75.6l-78.9 129.6V464h-71.1z"/><path fill="#fff" d="M1302.62 468.5q-35.4 0-61.8-12.9-26.1-13.2-40.2-37.8-14.1-24.9-14.1-58.5 0-33.9 14.1-58.5t40.2-37.8q26.4-13.2 61.8-13.2 23.4 0 40.8 3.9t32.7 12.6v66.6q-12.9-9.6-29.4-13.8-16.2-4.2-37.8-4.2-23.1 0-36.9 11.7-13.5 11.4-13.5 32.7 0 23.1 11.1 35.1 11.1 11.7 36 11.7 9 0 15.6-2.4v-19.8h-23.1v-40.8h85.5v107.7q-30.9 17.7-81 17.7m110.85-214.2h100.8q39 0 61.8 19.5t22.8 56.7q0 23.4-9.3 39.9-9.3 16.2-26.4 25.5l33 68.1h-71.7l-27.6-57.3h-13.5V464h-69.9zm85.8 99.3q27.3 0 27.3-23.1t-27.3-23.1h-15.9v46.2zm233.2 114.9q-32.1 0-58.2-13.8-25.8-13.8-40.8-38.4-15-24.9-15-57t15-57 40.8-38.7q26.1-13.8 58.2-13.8 31.8 0 57.6 13.8 26.1 13.8 41.1 38.7t15 57-15 57q-15 24.6-41.1 38.4-25.8 13.8-57.6 13.8m0-66.9q18 0 29.7-11.4t11.7-30.9-11.7-30.9-29.7-11.4q-18.3 0-30 11.4t-11.7 30.9 11.7 30.9q12 11.4 30 11.4m243.32 66.9q-33.9 0-56.7-12.9t-33.6-35.1-10.8-51V254.3h71.1v113.1q0 17.7 7.2 26.7t22.8 9 22.5-9q7.2-9 7.2-26.7V254.3h71.4v115.2q0 28.8-10.8 51t-33.6 35.1-56.7 12.9m135.71-214.2h62.7l62.4 97.5v-97.5h68.1V464H2242l-62.4-97.8V464h-68.1zm229.16 0h80.4q34.8 0 60.9 12.6 26.4 12.6 40.8 36t14.4 55.2q0 52.2-31.2 79.2-30.9 26.7-84.9 26.7h-80.4zm85.2 143.7q39 0 39-39.9 0-18.3-10.2-27.9-10.2-9.9-28.8-9.9h-14.1V398z"/></svg>